<?xml version="1.0" encoding="UTF-8" standalone="no"?>
<!DOCTYPE svg PUBLIC "-//W3C//DTD SVG 1.1//EN" "http://www.w3.org/Graphics/SVG/1.1/DTD/svg11.dtd">
<svg width="100%" height="100%" viewBox="0 0 1024 1024" version="1.1" xmlns="http://www.w3.org/2000/svg" xmlns:xlink="http://www.w3.org/1999/xlink" xml:space="preserve" xmlns:serif="http://www.serif.com/" style="fill-rule:evenodd;clip-rule:evenodd;stroke-linecap:round;stroke-linejoin:round;stroke-miterlimit:1.5;">
    <g transform="matrix(3.04845,0,0,3.04845,-62.7574,-669.975)">
        <circle cx="188.541" cy="387.73" r="117.071" style="fill:none;stroke:rgb(153,153,153);stroke-opacity:0.5;stroke-width:13.67px;"/>
    </g>
    <g transform="matrix(0.838373,0,0,0.838373,-15.961,33.3491)">
        <g transform="matrix(0.321399,0,0,0.321399,62.633,176.6)">
            <path d="M671.074,54.955L1134.95,322.777L1134.95,858.421L671.074,1126.24L207.193,858.421L207.193,322.777L671.074,54.955Z" style="fill:rgb(235,235,235);"/>
            <path d="M671.074,54.955L1134.95,322.777L1134.95,858.421L671.074,1126.24L207.193,858.421L207.193,322.777L671.074,54.955ZM671.074,89.238L1105.27,339.919C1105.27,339.919 1105.27,841.279 1105.27,841.279C1105.27,841.279 671.074,1091.96 671.074,1091.96C671.074,1091.96 236.883,841.279 236.883,841.279C236.883,841.279 236.883,339.919 236.883,339.919L671.074,89.238Z" style="fill:rgb(120,120,120);fill-opacity:0.8;"/>
        </g>
        <g transform="matrix(0.321399,0,0,0.321399,62.633,176.6)">
            <path d="M671.074,54.955L1134.95,322.777L1134.95,327.636L671.074,595.458L207.193,327.636L207.193,322.777L671.074,54.955Z" style="fill:rgb(227,172,154);"/>
            <path d="M671.074,54.955L1134.95,322.777L1134.95,327.636L671.074,595.458L207.193,327.636L207.193,322.777L671.074,54.955ZM262.365,325.207L671.074,561.175L1079.78,325.207L671.074,89.238L262.365,325.207Z" style="fill:rgb(120,120,120);fill-opacity:0.8;"/>
        </g>
        <g transform="matrix(0.866025,0.5,-6.93889e-17,0.831744,-197.209,0.498235)">
            <text x="396.503px" y="280.954px" style="font-family:'HiraMaruPro-W4', 'Hiragino Maru Gothic Pro', sans-serif;font-size:182.101px;">E</text>
        </g>
    </g>
    <g transform="matrix(0.838373,0,0,0.838373,-135.482,118.75)">
        <g transform="matrix(0.321399,0,0,0.321399,380.911,176.6)">
            <path d="M671.074,54.955L1134.95,322.777L1134.95,858.421L671.074,1126.24L207.193,858.421L207.193,322.777L671.074,54.955Z" style="fill:rgb(235,235,235);"/>
            <path d="M671.074,54.955L1134.95,322.777L1134.95,858.421L671.074,1126.24L207.193,858.421L207.193,322.777L671.074,54.955ZM671.074,89.238L1105.27,339.919C1105.27,339.919 1105.27,841.279 1105.27,841.279C1105.27,841.279 671.074,1091.96 671.074,1091.96C671.074,1091.96 236.883,841.279 236.883,841.279C236.883,841.279 236.883,339.919 236.883,339.919L671.074,89.238Z" style="fill:rgb(120,120,120);fill-opacity:0.8;"/>
        </g>
        <g transform="matrix(0.321399,0,0,0.321399,380.911,176.6)">
            <path d="M671.074,54.955L1134.95,322.777L1134.95,327.636L671.074,595.458L207.193,327.636L207.193,322.777L671.074,54.955Z" style="fill:rgb(187,220,128);"/>
            <path d="M671.074,54.955L1134.95,322.777L1134.95,327.636L671.074,595.458L207.193,327.636L207.193,322.777L671.074,54.955ZM262.365,325.207L671.074,561.175L1079.78,325.207L671.074,89.238L262.365,325.207Z" style="fill:rgb(120,120,120);fill-opacity:0.8;"/>
        </g>
        <g transform="matrix(0.866025,0.5,-6.93889e-17,0.831744,122.992,0.498235)">
            <text x="396.503px" y="280.954px" style="font-family:'HiraMaruPro-W4', 'Hiragino Maru Gothic Pro', sans-serif;font-size:182.101px;">V</text>
        </g>
    </g>
    <g transform="matrix(0.838373,0,0,0.838373,-113.162,-38.6448)">
        <g transform="matrix(0.321399,0,0,0.321399,530.002,467.765)">
            <path d="M671.074,54.955L1134.95,322.777L1134.95,858.421L671.074,1126.24L207.193,858.421L207.193,322.777L671.074,54.955Z" style="fill:rgb(235,235,235);"/>
            <path d="M671.074,54.955L1134.95,322.777L1134.95,858.421L671.074,1126.24L207.193,858.421L207.193,322.777L671.074,54.955ZM671.074,89.238L1105.27,339.919C1105.27,339.919 1105.27,841.279 1105.27,841.279C1105.27,841.279 671.074,1091.96 671.074,1091.96C671.074,1091.96 236.883,841.279 236.883,841.279C236.883,841.279 236.883,339.919 236.883,339.919L671.074,89.238Z" style="fill:rgb(120,120,120);fill-opacity:0.8;"/>
        </g>
        <g transform="matrix(0.866025,0.5,-6.93889e-17,0.831744,273.179,290.883)">
            <text x="396.503px" y="280.954px" style="font-family:'HiraMaruPro-W4', 'Hiragino Maru Gothic Pro', sans-serif;font-size:182.101px;">E</text>
        </g>
        <g transform="matrix(0.321399,0,0,0.321399,530.002,466.203)">
            <path d="M671.074,54.955L1134.95,322.777L1134.95,327.636L671.074,595.458L207.193,327.636L207.193,322.777L671.074,54.955Z" style="fill:rgb(151,173,226);"/>
            <path d="M671.074,54.955L1134.95,322.777L1134.95,327.636L671.074,595.458L207.193,327.636L207.193,322.777L671.074,54.955ZM262.365,325.207L671.074,561.175L1079.78,325.207L671.074,89.238L262.365,325.207Z" style="fill:rgb(120,120,120);fill-opacity:0.8;"/>
        </g>
    </g>
    <g transform="matrix(0.838373,0,0,0.838373,425.982,290.861)">
        <g transform="matrix(0.321399,0,0,0.321399,62.633,176.6)">
            <path d="M671.074,54.955L1134.95,322.777L1134.95,858.421L671.074,1126.24L207.193,858.421L207.193,322.777L671.074,54.955Z" style="fill:rgb(235,235,235);"/>
            <path d="M671.074,54.955L1134.95,322.777L1134.95,858.421L671.074,1126.24L207.193,858.421L207.193,322.777L671.074,54.955ZM671.074,89.238C671.074,89.238 1027.55,295.048 1105.27,339.919C1105.27,339.919 1105.27,841.279 1105.27,841.279C1105.27,841.279 671.074,1091.96 671.074,1091.96C671.074,1091.96 236.883,841.279 236.883,841.279C236.883,841.279 236.883,339.919 236.883,339.919L671.074,89.238Z" style="fill:rgb(120,120,120);fill-opacity:0.8;"/>
        </g>
        <g transform="matrix(0.321399,0,0,0.321399,62.633,176.6)">
            <path d="M671.074,54.955L1134.95,322.777L1134.95,327.636L671.074,595.458L207.193,327.636L207.193,322.777L671.074,54.955Z" style="fill:rgb(227,154,212);"/>
            <path d="M671.074,54.955L1134.95,322.777L1134.95,327.636L671.074,595.458L207.193,327.636L207.193,322.777L671.074,54.955ZM262.365,325.207L671.074,561.175L1079.78,325.207L671.074,89.238L262.365,325.207Z" style="fill:rgb(120,120,120);fill-opacity:0.8;"/>
        </g>
        <g transform="matrix(0.866025,0.5,-6.93889e-17,0.831744,-197.209,0.498235)">
            <text x="396.503px" y="280.954px" style="font-family:'HiraMaruPro-W4', 'Hiragino Maru Gothic Pro', sans-serif;font-size:182.101px;">N</text>
        </g>
    </g>
    <g transform="matrix(0.838373,0,0,0.838373,306.461,376.262)">
        <g transform="matrix(0.321399,0,0,0.321399,380.911,176.6)">
            <path d="M671.074,54.955L1134.95,322.777L1134.95,858.421L671.074,1126.24L207.193,858.421L207.193,322.777L671.074,54.955Z" style="fill:rgb(235,235,235);"/>
            <path d="M671.074,54.955L1134.95,322.777L1134.95,858.421L671.074,1126.24L207.193,858.421L207.193,322.777L671.074,54.955ZM671.074,89.238L1105.27,339.919C1105.27,339.919 1105.27,841.279 1105.27,841.279C1105.27,841.279 671.074,1091.96 671.074,1091.96C671.074,1091.96 236.883,841.279 236.883,841.279C236.883,841.279 236.883,339.919 236.883,339.919L671.074,89.238Z" style="fill:rgb(120,120,120);fill-opacity:0.8;"/>
        </g>
        <g transform="matrix(0.321399,0,0,0.321399,380.911,176.6)">
            <path d="M671.074,54.955L1134.95,322.777L1134.95,327.636L671.074,595.458L207.193,327.636L207.193,322.777L671.074,54.955Z" style="fill:rgb(220,220,128);"/>
            <path d="M671.074,54.955L1134.95,322.777L1134.95,327.636L671.074,595.458L207.193,327.636L207.193,322.777L671.074,54.955ZM262.365,325.207L671.074,561.175L1079.78,325.207L671.074,89.238L262.365,325.207Z" style="fill:rgb(120,120,120);fill-opacity:0.8;"/>
        </g>
        <g transform="matrix(0.866025,0.5,-6.93889e-17,0.831744,122.992,0.498235)">
            <text x="396.503px" y="280.954px" style="font-family:'HiraMaruPro-W4', 'Hiragino Maru Gothic Pro', sans-serif;font-size:182.101px;">T</text>
        </g>
    </g>
</svg>
